# xmcd CD database file
#
# Track frame offsets:
#	182
#	17865
#	34735
#	60082
#	80372
#	97880
#	117805
#	132510
#	145445
#	158967
#	173575
#	184990
#	198175
#	213267
#	231092
#	247165
#	261720
#	280057
#	298105
#	313447
#
# Disc length: 4447 seconds
#
# Revision: 1
# Processed by: cddbd v1.5.2PL0 Copyright (c) Steve Scherf et al.
# Submitted via: CDex 1.70beta2
#
DISCID=2b115d14
DTITLE=Maggie MacNeal - When You're gone
DYEAR=1997
DGENRE=Pop
TTITLE0=Only Love
TTITLE1=A night in the city
TTITLE2=Dr. Brian
TTITLE3=When you're gone
TTITLE4=Life is going on
TTITLE5=Love was in your eyes
TTITLE6=Nothing else to do
TTITLE7=You an I
TTITLE8=Fools together
TTITLE9=Nighttime
TTITLE10=Amsterdam
TTITLE11=The one and only
TTITLE12=Ooh!
TTITLE13=Why your lady says goodbye
TTITLE14=Together
TTITLE15=If I only knew your name
TTITLE16=I've got you 
TTITLE17=Still can't believe it
TTITLE18=You are my hope
TTITLE19=Terug naar de kust
EXTD=YEAR: 1997
EXTT0=
EXTT1=
EXTT2=
EXTT3=
EXTT4=
EXTT5=
EXTT6=
EXTT7=
EXTT8=
EXTT9=
EXTT10=
EXTT11=
EXTT12=
EXTT13=
EXTT14=
EXTT15=
EXTT16=
EXTT17=
EXTT18=
EXTT19=
PLAYORDER=
